<svg xmlns="http://www.w3.org/2000/svg" version="1.0" width="756.000000pt" height="756.000000pt" viewBox="0 0 756.000000 756.000000" preserveAspectRatio="xMidYMid meet">

<g transform="translate(0.000000,756.000000) scale(0.100000,-0.100000)" fill="#000000" stroke="none">
<path d="M0 3780 l0 -3780 3780 0 3780 0 0 3780 0 3780 -3780 0 -3780 0 0 -3780z m4204 2683 c49 -108 259 -562 383 -828 36 -77 78 -167 93 -200 15 -33 117 -251 225 -485 109 -234 239 -515 290 -625 77 -166 229 -495 390 -840 18 -38 120 -259 228 -490 582 -1253 800 -1721 804 -1733 4 -10 -78 -12 -403 -10 l-408 3 -124 265 c-68 146 -209 450 -314 675 -105 226 -223 480 -263 565 -141 304 -278 597 -350 750 -40 85 -183 391 -318 680 -135 289 -309 660 -386 825 -78 165 -174 369 -214 452 -39 84 -75 149 -79 145 -3 -4 -61 -124 -128 -267 -125 -266 -144 -306 -290 -622 l-85 -183 -417 0 -417 0 33 73 c18 39 128 272 244 517 555 1176 672 1424 672 1432 0 4 177 8 393 8 l393 0 48 -107z m-2311 -1907 c63 -31 137 -105 169 -170 l22 -46 915 -2 916 -3 41 -27 c23 -15 51 -40 62 -55 10 -15 82 -156 158 -313 76 -157 241 -492 367 -744 126 -253 238 -484 249 -514 34 -91 15 -163 -56 -216 -27 -21 -32 -21 -1344 -24 l-1317 -2 -33 -65 c-104 -199 -365 -240 -530 -81 -66 63 -95 126 -100 221 -5 99 19 170 79 239 133 151 351 161 491 22 29 -29 62 -71 72 -94 l19 -42 1264 0 c694 0 1263 2 1263 5 0 3 -72 149 -160 325 l-160 320 -1288 0 -1287 -1 -34 -59 c-107 -187 -356 -226 -514 -81 -53 49 -105 148 -113 216 -12 100 35 218 114 291 89 81 223 106 336 64 76 -29 149 -96 187 -172 l29 -58 1235 0 c679 0 1235 2 1235 5 0 3 -71 146 -157 319 -157 314 -157 314 -192 320 -20 3 -422 6 -894 6 l-858 0 -17 -31 c-59 -107 -136 -168 -245 -195 -58 -15 -74 -15 -129 -3 -292 65 -376 431 -139 609 70 53 128 71 218 66 52 -2 86 -10 126 -30z m427 -2559 c0 -2 -78 -170 -174 -373 l-173 -369 -442 -3 c-258 -1 -441 2 -441 7 0 5 55 123 123 262 68 140 147 305 177 367 l53 112 439 0 c241 0 438 -1 438 -3z"/>
<path d="M1690 4378 c-62 -32 -96 -98 -81 -156 30 -108 136 -151 224 -90 80 57 74 198 -10 241 -54 28 -85 29 -133 5z"/>
<path d="M1323 3531 c-71 -33 -102 -123 -68 -194 47 -100 201 -103 251 -5 62 120 -61 254 -183 199z"/>
<path d="M1682 2664 c-129 -66 -92 -251 54 -271 40 -5 105 26 129 63 78 119 -57 272 -183 208z"/>
</g>
</svg>